<svg width="20" height="20" viewBox="0 0 20 20" fill="none" xmlns="http://www.w3.org/2000/svg">
<g opacity="0.6">
<path d="M13.3334 9.99971C13.3338 10.1944 13.266 10.3831 13.1417 10.533L8.97507 15.533C8.83362 15.7032 8.63036 15.8102 8.41 15.8306C8.18965 15.8509 7.97025 15.7828 7.80007 15.6414C7.62989 15.4999 7.52287 15.2967 7.50255 15.0763C7.48223 14.856 7.55028 14.6366 7.69173 14.4664L11.4251 9.99971L7.82507 5.53304C7.75585 5.44781 7.70415 5.34973 7.67296 5.24444C7.64177 5.13916 7.63169 5.02875 7.6433 4.91956C7.65492 4.81037 7.688 4.70455 7.74065 4.60819C7.79329 4.51182 7.86446 4.42681 7.95007 4.35805C8.03575 4.28173 8.13627 4.22393 8.24533 4.18827C8.3544 4.15261 8.46965 4.13986 8.58387 4.15081C8.69809 4.16176 8.80881 4.19618 8.90911 4.25192C9.00941 4.30765 9.09711 4.3835 9.16673 4.47471L13.1917 9.47471C13.2963 9.62895 13.3462 9.8138 13.3334 9.99971Z" fill="white"/>
</g>
</svg>
